PathFileType	4	(X/Y/Z)	C:\Users\ebm\Documents\Erivelton\Erivelton\propulsion4.trc
DataRate	CameraRate	NumFrames	NumMarkers	Units	OrigDataRate	OrigDataStartFrame	OrigNumFrames
150.00	150.00	      13	28	mm	150.00	938	      1250
Frame#	Time	IJ			PX			C7			T8			RAC			RAS			RPS			RAI			RPI			RLE			RME			RRS			RUS			R3M			R5M			LAC			LAS			LPS			LAI			LPI			LLE			LME			LRS			LUS			L3M			L5M			RW			LW			V_mid_elbow_r			V_mid_elbow_l			V_mid_wrist_r			V_mid_wrist_l			V_mid_trunk_low			V_mid_trunk_upp			
		X1	Y1	Z1	X2	Y2	Z2	X3	Y3	Z3	X4	Y4	Z4	X5	Y5	Z5	X6	Y6	Z6	X7	Y7	Z7	X8	Y8	Z8	X9	Y9	Z9	X10	Y10	Z10	X11	Y11	Z11	X12	Y12	Z12	X13	Y13	Z13	X14	Y14	Z14	X15	Y15	Z15	X16	Y16	Z16	X17	Y17	Z17	X18	Y18	Z18	X19	Y19	Z19	X20	Y20	Z20	X21	Y21	Z21	X22	Y22	Z22	X23	Y23	Z23	X24	Y24	Z24	X25	Y25	Z25	X26	Y26	Z26	X27	Y27	Z27	X28	Y28	Z28	

938	6.247	3687.26196	1021.96283	-101.18470	3691.85156	843.53912	-95.52569	3565.86572	1125.56567	-101.00630	3472.84131	938.96844	-96.28742	3607.60181	1072.24280	88.28783	3572.16650	907.94006	159.32855	3534.11353	942.89069	177.31723	3527.93652	845.95050	188.34380	3495.43726	881.36127	205.66768	3442.20728	814.76935	230.88666	3411.67090	789.96021	154.57271	3629.40967	623.49982	179.64635	3598.63306	610.09015	227.70261	3680.58496	555.95148	228.20398	3643.47607	542.98053	238.15497	3564.28906	1064.15295	-287.06302	3521.04248	924.10748	-377.36639	3473.99902	939.69037	-368.59476	3491.26050	858.35529	-415.65298	3439.36963	874.20807	-406.86496	3438.45508	803.49866	-441.28806	3407.57251	775.90271	-366.93344	3617.23022	616.40778	-374.45303	3591.38208	582.30585	-432.19116	3678.70801	556.15167	-435.66910	3643.50854	532.58398	-438.03348	3620.34839	294.12204	211.54242	3622.16235	301.30383	-417.36002	
939	6.253	3695.81812	1021.45837	-101.05762	3699.89209	843.09735	-95.30849	3574.72876	1125.36096	-100.74509	3481.31812	939.03381	-96.01338	3617.25659	1071.60986	88.86958	3583.22925	906.73132	159.74156	3546.38452	941.06555	177.89539	3539.78491	844.35382	189.21001	3507.29541	879.58972	207.39122	3454.95361	812.42242	232.57983	3423.87842	787.22302	156.62943	3645.88867	624.61993	182.02342	3613.80835	610.35028	228.41461	3695.51831	553.93018	228.51901	3657.93555	541.97449	238.48161	3573.91992	1063.10339	-287.81012	3531.76465	922.79187	-378.51147	3484.96680	938.22034	-368.60519	3503.28003	856.90833	-417.40005	3451.03271	872.15472	-407.09897	3451.11255	801.63177	-443.24570	3419.79639	773.63141	-369.44931	3632.17920	616.53528	-374.56543	3606.35742	582.13934	-432.36652	3693.43433	555.34949	-435.92548	3657.35156	531.95624	-438.07300	3627.68750	294.29382	211.47682	3629.80640	301.23416	-417.31366	
940	6.260	3704.48975	1021.03534	-100.79251	3708.08276	842.60077	-95.13392	3583.45044	1125.25610	-100.53056	3489.60693	939.11505	-95.82785	3626.69409	1071.05005	89.34888	3594.34546	905.48108	160.10345	3557.74878	939.60339	179.03348	3551.85474	842.67517	189.99762	3520.40723	877.42047	208.19675	3467.84985	809.91022	234.12415	3436.46558	784.33521	158.61507	3661.06641	624.10095	182.78986	3628.95264	609.88513	229.07336	3710.14014	551.86810	228.86639	3672.43506	540.86267	238.79463	3583.72168	1062.17175	-288.51440	3542.68115	921.41638	-379.78528	3495.77905	936.42676	-370.06763	3515.33228	855.39374	-419.13635	3462.96460	870.09167	-409.11844	3464.12720	799.74890	-445.15643	3432.09692	771.14697	-371.99435	3646.61646	616.50500	-374.81946	3621.24097	581.79205	-432.38763	3707.97583	554.70532	-435.95529	3671.20435	531.53571	-438.40414	3635.44019	294.26437	211.57616	3637.80225	301.18625	-417.21002	
941	6.267	3713.16992	1020.65533	-100.60368	3716.31079	842.17065	-94.99042	3592.23071	1124.98828	-100.17864	3498.15210	939.23633	-95.61971	3636.09204	1070.44568	89.73766	3605.61743	904.27319	160.33054	3568.97168	937.98413	180.13689	3564.20776	840.91815	190.55150	3532.77856	875.32751	209.59990	3481.06177	807.37396	235.67027	3449.27930	781.32373	160.62256	3676.57593	623.50665	183.56485	3644.03125	609.33167	229.80179	3724.23486	549.00690	228.96085	3686.73730	539.41498	239.04066	3593.33203	1061.25366	-289.07721	3553.85840	919.99554	-380.85724	3506.71631	934.58655	-371.60532	3527.61133	853.70172	-420.72702	3475.07495	867.94897	-411.17233	3477.84937	797.58954	-446.83005	3444.59302	768.60370	-374.38022	3662.14819	616.52686	-374.70883	3636.05322	581.46332	-432.26892	3722.27563	553.76257	-435.89255	3685.00171	530.87762	-438.46976	3643.25122	294.24481	211.62267	3645.43579	301.24146	-417.22354	
942	6.273	3721.54419	1020.19073	-100.64530	3724.43652	841.81586	-94.72097	3600.94678	1124.82239	-100.05309	3506.59595	939.30884	-95.36054	3645.37231	1070.01221	90.02498	3617.57642	903.05737	160.56221	3580.44702	936.30884	181.06265	3576.73755	839.10126	191.00507	3545.42163	872.98785	210.79958	3494.53491	804.64545	237.13287	3462.33057	778.31934	162.40623	3692.15186	622.81702	184.34134	3659.16553	608.24957	230.29930	3737.81372	545.44470	231.41893	3700.97290	537.71118	239.49612	3602.89600	1060.53882	-289.64035	3564.81226	918.64380	-382.13495	3517.92114	932.85724	-373.19043	3540.21655	851.90186	-422.14063	3487.67603	865.81122	-413.34793	3491.18628	795.42090	-448.57773	3457.29175	766.73389	-376.57108	3677.36182	616.08899	-374.33377	3651.11914	581.10577	-432.04547	3736.56909	552.68951	-435.67365	3699.07910	530.30383	-438.59793	3650.92383	294.21045	211.67838	3653.24243	301.18185	-417.08194	
943	6.280	3730.22095	1019.82526	-100.48666	3732.65234	841.44873	-94.60519	3609.64697	1124.71216	-99.86527	3515.07129	939.48761	-95.12841	3654.72534	1069.55896	90.29691	3629.02881	901.87988	160.61499	3592.02710	934.49689	181.94472	3589.57495	837.16235	191.32108	3558.19116	870.68311	211.95314	3508.19507	801.84210	238.44292	3475.52100	775.28217	164.13057	3707.85303	621.76984	184.91673	3674.43628	606.95837	230.80052	3752.22363	542.95044	231.63867	3715.21533	535.98401	239.73393	3612.46411	1059.72144	-290.06720	3576.24023	917.00403	-383.07761	3529.24634	930.93311	-374.70724	3552.93188	849.90845	-423.25186	3500.33105	863.49567	-415.38086	3504.30859	793.32019	-450.42099	3470.23047	764.23486	-378.62335	3692.54492	615.46075	-373.78491	3666.19067	580.72162	-431.81973	3752.38013	551.15576	-435.97470	3712.93652	529.90192	-438.87500	3658.66650	294.17068	211.77130	3661.01880	301.28064	-416.80798	
944	6.287	3738.84937	1019.57196	-100.35612	3740.86230	841.13757	-94.58719	3618.33081	1124.53540	-99.59424	3523.44556	939.65491	-94.93634	3663.93188	1069.09375	90.60989	3640.66040	900.67706	160.57259	3603.74463	932.66150	182.78468	3603.05859	835.23285	191.63857	3571.30591	868.19775	212.82773	3522.24023	798.92108	239.69269	3488.99561	772.24622	165.66724	3723.37842	620.37415	185.38173	3689.78149	605.43243	231.07033	3767.37573	541.00482	230.30157	3729.38818	534.21320	239.92807	3621.94019	1058.97583	-290.29721	3588.02393	915.28955	-383.95392	3540.67822	928.88397	-376.34641	3565.93604	847.81000	-424.31418	3512.91260	861.34888	-417.33871	3518.48779	790.83978	-451.65009	3483.38989	761.88147	-380.45096	3707.37085	614.50604	-373.04993	3681.34497	580.20178	-431.44351	3766.95313	549.75031	-435.66275	3726.45850	529.51648	-439.11414	3666.44946	294.16043	211.81636	3668.55615	301.39371	-416.67657	
945	6.293	3747.39307	1019.26282	-100.39603	3749.00439	840.83887	-94.69918	3626.95874	1124.43872	-99.46255	3531.97632	939.74725	-94.64982	3673.26978	1068.67822	90.76145	3652.49951	899.42645	160.40468	3615.50708	930.70441	183.45781	3616.12256	833.29382	191.69861	3584.44189	865.55890	213.62970	3536.22363	795.86877	240.83754	3502.64453	769.06445	167.06915	3739.01538	618.78351	185.70116	3705.24341	603.93347	231.40019	3781.64429	538.07556	230.45607	3743.69727	532.34180	240.18861	3631.29590	1058.37402	-290.62927	3599.90332	913.51801	-384.72095	3552.99219	926.92102	-377.84271	3579.25586	845.62970	-425.11597	3525.96631	858.83124	-419.22104	3532.54883	788.46454	-452.92798	3496.71313	759.34869	-382.11496	3722.32056	613.51111	-372.29333	3696.43091	579.57202	-431.17041	3781.48315	548.02490	-435.08017	3740.48193	528.55750	-438.97458	3674.18042	294.12878	211.90421	3676.50708	301.48126	-416.64975	
946	6.300	3755.89063	1019.08490	-100.36552	3757.30005	840.68848	-94.61579	3635.62451	1124.34363	-99.21317	3540.33301	939.90204	-94.44415	3682.40381	1068.03540	91.10567	3664.50537	898.20172	160.16646	3627.47119	928.74237	184.00562	3629.59497	831.29327	191.71867	3597.79932	862.98810	214.29323	3550.50513	792.77728	241.78459	3516.24512	765.86877	168.37369	3754.78418	617.30414	186.04059	3720.83594	602.60522	231.71169	3796.03320	535.10645	230.71886	3757.92090	530.32330	240.45590	3640.66821	1057.71692	-290.94592	3611.97900	911.70447	-385.43588	3564.90015	924.82739	-379.38315	3592.60791	843.22198	-425.83636	3539.24512	856.30164	-420.93420	3546.68237	785.92676	-454.11053	3510.40527	756.75433	-383.56262	3737.34717	612.39063	-371.44092	3711.45117	578.75653	-430.94531	3795.96167	546.13739	-434.49109	3754.41602	527.37054	-438.85675	3681.97925	294.09122	211.95995	3684.39282	301.56268	-416.55960	
947	6.307	3764.42651	1018.97339	-100.31171	3765.53931	840.44379	-94.82473	3644.14673	1123.87732	-98.66444	3548.85938	940.10980	-94.25430	3691.75537	1067.48474	91.34789	3676.61694	896.96698	159.82127	3639.44507	926.82043	184.46378	3643.32764	829.39758	191.74992	3611.33179	860.43073	214.86557	3565.01221	789.62463	242.56258	3530.43066	762.55902	169.47499	3770.69556	615.74890	186.58150	3736.39819	601.24701	232.12715	3810.32007	531.84216	230.92749	3771.97900	528.45605	240.67850	3649.80493	1057.08325	-291.16168	3623.98560	909.88599	-385.95056	3576.89648	922.64215	-380.86215	3605.91016	841.01227	-426.55948	3553.25293	854.23950	-422.91064	3561.20264	783.38104	-454.97070	3523.99048	754.09637	-384.91251	3752.54224	611.09418	-370.62997	3726.56934	577.76483	-430.57141	3810.68945	544.04053	-434.06320	3768.35522	525.97675	-438.62589	3690.14014	293.89349	211.92636	3692.01367	301.48676	-416.48953	
948	6.313	3773.02563	1018.92548	-100.25941	3773.75781	840.35175	-94.97552	3652.81201	1123.85181	-98.39924	3557.34839	940.28851	-94.01426	3701.10718	1066.94800	91.70760	3688.85376	895.82800	159.49214	3651.42749	924.88196	184.87480	3657.10596	827.50494	191.63557	3624.90771	857.98041	215.37469	3579.62134	786.44934	243.26503	3544.59058	759.16296	170.46878	3786.88110	614.15607	187.15633	3752.05835	599.40863	232.32901	3824.68774	528.48010	231.14265	3786.53833	525.88458	241.07968	3659.15332	1056.42078	-291.47195	3636.20288	908.01697	-386.60025	3589.20435	920.61804	-382.82220	3619.42700	838.64349	-427.17783	3566.79468	851.49139	-424.17438	3575.89771	780.74115	-455.67813	3537.96484	751.25183	-386.14304	3767.72070	609.53192	-369.98563	3741.90381	576.77393	-430.84415	3824.36816	540.30927	-433.26031	3782.25903	524.20453	-438.36868	3697.98169	293.86752	212.02545	3699.88135	301.55582	-416.34537	
949	6.320	3781.51831	1018.91876	-100.28674	3782.07397	840.41650	-94.99992	3661.46143	1124.44324	-98.57380	3565.69434	940.47913	-93.82575	3710.48926	1066.29114	91.97139	3701.00708	894.62451	159.05869	3663.50952	923.02295	185.11639	3670.98438	825.70880	191.52214	3638.52783	855.50867	215.74724	3594.32104	783.23749	243.72578	3559.43237	755.80255	171.02208	3802.82617	611.95636	187.54103	3767.72729	597.73529	232.73946	3839.09253	524.90790	231.26753	3800.90552	523.39502	241.08922	3668.37549	1055.83875	-291.75571	3648.31177	906.15405	-387.21405	3601.40942	918.39166	-384.05109	3633.65161	836.30902	-427.82239	3580.46460	848.79468	-425.31122	3590.68433	778.01526	-456.16589	3552.36304	747.78638	-387.30255	3783.13794	607.75787	-369.45557	3756.97656	575.17297	-430.48013	3838.50513	536.97656	-432.85538	3796.28125	522.21252	-438.21005	3705.89111	293.80396	212.13243	3707.57446	301.55490	-416.18173	
950	6.327	3790.03369	1019.00146	-100.21301	3790.20435	840.36157	-95.11504	3670.16357	1124.45776	-98.36897	3574.03149	940.73865	-93.63967	3719.88647	1065.73767	92.28796	3713.50000	893.79565	158.54187	3675.50366	921.10382	185.31264	3684.73560	823.91724	191.30058	3652.23535	853.25433	215.97620	3609.27271	780.04755	244.09286	3573.61353	752.37915	171.75531	3818.37817	608.44550	187.31029	3783.55103	595.61853	232.98500	3853.51563	521.24597	231.43648	3815.51855	520.76703	241.55945	3677.45459	1055.11572	-292.09546	3660.38403	904.21790	-387.94449	3613.67944	916.10266	-385.27213	3646.97046	833.87817	-428.16412	3594.21436	845.90625	-426.29773	3605.56396	775.45697	-456.46893	3566.59570	744.85376	-388.23889	3798.92139	605.92633	-369.16742	3772.62769	574.10236	-430.62952	3852.34375	532.92853	-431.60706	3810.28662	520.06378	-438.03162	3713.78345	293.80792	212.23317	3715.38281	301.59628	-416.06451	
